# Blender v2.78 (sub 0) OBJ File: ''
# www.blender.org
mtllib Enemy2.mtl
o Cylinder
v 0.000000 0.817589 -0.100000
v 0.000000 1.617589 -0.100000
v 0.019509 0.817589 -0.098079
v 0.019509 1.617589 -0.098079
v 0.038268 0.817589 -0.092388
v 0.038268 1.617589 -0.092388
v 0.055557 0.817589 -0.083147
v 0.055557 1.617589 -0.083147
v 0.070711 0.817589 -0.070711
v 0.070711 1.617589 -0.070711
v 0.083147 0.817589 -0.055557
v 0.083147 1.617589 -0.055557
v 0.092388 0.817589 -0.038268
v 0.092388 1.617589 -0.038268
v 0.098079 0.817589 -0.019509
v 0.098079 1.617589 -0.019509
v 0.100000 0.817589 -0.000000
v 0.100000 1.617589 -0.000000
v 0.098079 0.817589 0.019509
v 0.098079 1.617589 0.019509
v 0.092388 0.817589 0.038268
v 0.092388 1.617589 0.038268
v 0.083147 0.817589 0.055557
v 0.083147 1.617589 0.055557
v 0.070711 0.817589 0.070711
v 0.070711 1.617589 0.070711
v 0.055557 0.817589 0.083147
v 0.055557 1.617589 0.083147
v 0.038268 0.817589 0.092388
v 0.038268 1.617589 0.092388
v 0.019509 0.817589 0.098079
v 0.019509 1.617589 0.098079
v -0.000000 0.817589 0.100000
v -0.000000 1.617589 0.100000
v -0.019509 0.817589 0.098079
v -0.019509 1.617589 0.098079
v -0.038268 0.817589 0.092388
v -0.038268 1.617589 0.092388
v -0.055557 0.817589 0.083147
v -0.055557 1.617589 0.083147
v -0.070711 0.817589 0.070711
v -0.070711 1.617589 0.070711
v -0.083147 0.817589 0.055557
v -0.083147 1.617589 0.055557
v -0.092388 0.817589 0.038268
v -0.092388 1.617589 0.038268
v -0.098079 0.817589 0.019509
v -0.098079 1.617589 0.019509
v -0.100000 0.817589 -0.000000
v -0.100000 1.617589 -0.000000
v -0.098079 0.817589 -0.019509
v -0.098079 1.617589 -0.019509
v -0.092388 0.817589 -0.038268
v -0.092388 1.617589 -0.038268
v -0.083147 0.817589 -0.055557
v -0.083147 1.617589 -0.055557
v -0.070711 0.817589 -0.070711
v -0.070711 1.617589 -0.070711
v -0.055557 0.817589 -0.083147
v -0.055557 1.617589 -0.083147
v -0.038268 0.817589 -0.092388
v -0.038268 1.617589 -0.092388
v -0.019509 0.817589 -0.098079
v -0.019509 1.617589 -0.098079
vn 0.0980 0.0000 -0.9952
vn 0.2903 0.0000 -0.9569
vn 0.4714 0.0000 -0.8819
vn 0.6344 0.0000 -0.7730
vn 0.7730 0.0000 -0.6344
vn 0.8819 0.0000 -0.4714
vn 0.9569 0.0000 -0.2903
vn 0.9952 0.0000 -0.0980
vn 0.9952 0.0000 0.0980
vn 0.9569 0.0000 0.2903
vn 0.8819 0.0000 0.4714
vn 0.7730 0.0000 0.6344
vn 0.6344 0.0000 0.7730
vn 0.4714 0.0000 0.8819
vn 0.2903 0.0000 0.9569
vn 0.0980 0.0000 0.9952
vn -0.0980 0.0000 0.9952
vn -0.2903 0.0000 0.9569
vn -0.4714 0.0000 0.8819
vn -0.6344 0.0000 0.7730
vn -0.7730 0.0000 0.6344
vn -0.8819 0.0000 0.4714
vn -0.9569 0.0000 0.2903
vn -0.9952 0.0000 0.0980
vn -0.9952 0.0000 -0.0980
vn -0.9569 0.0000 -0.2903
vn -0.8819 0.0000 -0.4714
vn -0.7730 0.0000 -0.6344
vn -0.6344 0.0000 -0.7730
vn -0.4714 0.0000 -0.8819
vn 0.0000 1.0000 0.0000
vn -0.2903 0.0000 -0.9569
vn -0.0980 0.0000 -0.9952
vn 0.0000 -1.0000 -0.0000
usemtl None
s off
f 1//1 2//1 4//1 3//1
f 3//2 4//2 6//2 5//2
f 5//3 6//3 8//3 7//3
f 7//4 8//4 10//4 9//4
f 9//5 10//5 12//5 11//5
f 11//6 12//6 14//6 13//6
f 13//7 14//7 16//7 15//7
f 15//8 16//8 18//8 17//8
f 17//9 18//9 20//9 19//9
f 19//10 20//10 22//10 21//10
f 21//11 22//11 24//11 23//11
f 23//12 24//12 26//12 25//12
f 25//13 26//13 28//13 27//13
f 27//14 28//14 30//14 29//14
f 29//15 30//15 32//15 31//15
f 31//16 32//16 34//16 33//16
f 33//17 34//17 36//17 35//17
f 35//18 36//18 38//18 37//18
f 37//19 38//19 40//19 39//19
f 39//20 40//20 42//20 41//20
f 41//21 42//21 44//21 43//21
f 43//22 44//22 46//22 45//22
f 45//23 46//23 48//23 47//23
f 47//24 48//24 50//24 49//24
f 49//25 50//25 52//25 51//25
f 51//26 52//26 54//26 53//26
f 53//27 54//27 56//27 55//27
f 55//28 56//28 58//28 57//28
f 57//29 58//29 60//29 59//29
f 59//30 60//30 62//30 61//30
f 4//31 2//31 64//31 62//31 60//31 58//31 56//31 54//31 52//31 50//31 48//31 46//31 44//31 42//31 40//31 38//31 36//31 34//31 32//31 30//31 28//31 26//31 24//31 22//31 20//31 18//31 16//31 14//31 12//31 10//31 8//31 6//31
f 61//32 62//32 64//32 63//32
f 63//33 64//33 2//33 1//33
f 1//34 3//34 5//34 7//34 9//34 11//34 13//34 15//34 17//34 19//34 21//34 23//34 25//34 27//34 29//34 31//34 33//34 35//34 37//34 39//34 41//34 43//34 45//34 47//34 49//34 51//34 53//34 55//34 57//34 59//34 61//34 63//34
o Cube.001_Cube.002
v -0.098910 0.714250 -0.015334
v -0.098910 0.848075 -0.163963
v -0.098910 -0.028899 -0.684459
v -0.098910 0.104926 -0.833089
v 0.101090 0.714250 -0.015334
v 0.101090 0.848075 -0.163963
v 0.101090 -0.028899 -0.684459
v 0.101090 0.104926 -0.833089
vn -1.0000 0.0000 0.0000
vn 0.0000 -0.7431 -0.6691
vn 1.0000 0.0000 0.0000
vn 0.0000 0.7431 0.6691
vn 0.0000 -0.6691 0.7431
vn 0.0000 0.6691 -0.7431
usemtl None
s off
f 65//35 66//35 68//35 67//35
f 67//36 68//36 72//36 71//36
f 71//37 72//37 70//37 69//37
f 69//38 70//38 66//38 65//38
f 67//39 71//39 69//39 65//39
f 72//40 68//40 66//40 70//40
o Cube_Cube.001
v -0.200000 -1.000000 0.200000
v -0.200000 1.000000 0.200000
v -0.200000 -1.000000 -0.200000
v -0.200000 1.000000 -0.200000
v 0.200000 -1.000000 0.200000
v 0.200000 1.000000 0.200000
v 0.200000 -1.000000 -0.200000
v 0.200000 1.000000 -0.200000
vn -1.0000 0.0000 0.0000
vn 0.0000 0.0000 -1.0000
vn 1.0000 0.0000 0.0000
vn 0.0000 0.0000 1.0000
vn 0.0000 -1.0000 0.0000
vn 0.0000 1.0000 0.0000
usemtl None
s off
f 73//41 74//41 76//41 75//41
f 75//42 76//42 80//42 79//42
f 79//43 80//43 78//43 77//43
f 77//44 78//44 74//44 73//44
f 75//45 79//45 77//45 73//45
f 80//46 76//46 74//46 78//46
o Cube.002_Cube.003
v -0.098910 -0.034326 0.684068
v -0.098910 0.099500 0.832697
v -0.098910 0.708819 0.014937
v -0.098910 0.842645 0.163566
v 0.101090 -0.034326 0.684068
v 0.101090 0.099500 0.832697
v 0.101090 0.708819 0.014937
v 0.101090 0.842645 0.163566
vn -1.0000 -0.0000 0.0000
vn 0.0000 0.7431 -0.6691
vn 1.0000 0.0000 0.0000
vn 0.0000 -0.7431 0.6691
vn 0.0000 -0.6691 -0.7431
vn 0.0000 0.6691 0.7431
usemtl None
s off
f 81//47 82//47 84//47 83//47
f 83//48 84//48 88//48 87//48
f 87//49 88//49 86//49 85//49
f 85//50 86//50 82//50 81//50
f 83//51 87//51 85//51 81//51
f 88//52 84//52 82//52 86//52
