# Blender v2.78 (sub 0) OBJ File: ''
# www.blender.org
mtllib Enemy4.mtl
o Icosphere
v 1.245380 0.035420 0.000000
v 1.390102 0.145976 0.105145
v 1.190102 0.145976 0.170130
v 1.066495 0.145977 0.000000
v 1.190102 0.145976 -0.170130
v 1.390102 0.145976 -0.105145
v 1.300658 0.324864 0.170130
v 1.100659 0.324864 0.105145
v 1.100659 0.324864 -0.105145
v 1.300658 0.324864 -0.170130
v 1.424265 0.324863 0.000000
v 1.245380 0.435420 0.000000
v 1.212889 0.065289 0.099999
v 1.330445 0.065289 0.061802
v 1.297954 0.130272 0.161802
v 1.415510 0.130273 0.000000
v 1.330445 0.065289 -0.061802
v 1.140234 0.065290 0.000000
v 1.107742 0.130273 0.099999
v 1.212889 0.065289 -0.099999
v 1.107742 0.130273 -0.099999
v 1.297954 0.130272 -0.161802
v 1.435592 0.235420 0.061803
v 1.435592 0.235420 -0.061803
v 1.245380 0.235420 0.200000
v 1.362937 0.235420 0.161803
v 1.055169 0.235420 0.061803
v 1.127823 0.235420 0.161803
v 1.127823 0.235420 -0.161803
v 1.055169 0.235420 -0.061803
v 1.362937 0.235420 -0.161803
v 1.245380 0.235420 -0.200000
v 1.383018 0.340567 0.099999
v 1.192806 0.340568 0.161802
v 1.075251 0.340567 0.000000
v 1.192806 0.340568 -0.161802
v 1.383018 0.340567 -0.099999
v 1.277871 0.405551 0.099999
v 1.350526 0.405550 0.000000
v 1.160316 0.405551 0.061802
v 1.160316 0.405551 -0.061802
v 1.277871 0.405551 -0.099999
vn 0.1024 -0.9435 0.3151
vn 0.7002 -0.6617 0.2680
vn -0.2680 -0.9435 0.1947
vn -0.2680 -0.9435 -0.1947
vn 0.1024 -0.9435 -0.3151
vn 0.9050 -0.3304 0.2680
vn 0.0247 -0.3304 0.9435
vn -0.8897 -0.3304 0.3151
vn -0.5746 -0.3304 -0.7488
vn 0.5346 -0.3304 -0.7779
vn 0.8026 -0.1256 0.5831
vn -0.3066 -0.1256 0.9435
vn -0.9921 -0.1256 0.0000
vn -0.3066 -0.1256 -0.9435
vn 0.8026 -0.1256 -0.5831
vn 0.4089 0.6617 0.6284
vn -0.4713 0.6617 0.5831
vn -0.7002 0.6617 -0.2680
vn 0.0385 0.6617 -0.7488
vn 0.7240 0.6617 -0.1947
vn 0.2680 0.9435 -0.1947
vn 0.4911 0.7947 -0.3568
vn 0.4089 0.6617 -0.6284
vn -0.1024 0.9435 -0.3151
vn -0.1876 0.7947 -0.5773
vn -0.4713 0.6617 -0.5831
vn -0.3313 0.9435 0.0000
vn -0.6071 0.7947 0.0000
vn -0.7002 0.6617 0.2680
vn -0.1024 0.9435 0.3151
vn -0.1876 0.7947 0.5773
vn 0.0385 0.6617 0.7488
vn 0.2680 0.9435 0.1947
vn 0.4911 0.7947 0.3568
vn 0.7240 0.6617 0.1947
vn 0.8897 0.3304 -0.3151
vn 0.7947 0.1876 -0.5773
vn 0.5746 0.3304 -0.7488
vn -0.0247 0.3304 -0.9435
vn -0.3035 0.1876 -0.9342
vn -0.5346 0.3304 -0.7779
vn -0.9050 0.3304 -0.2680
vn -0.9822 0.1876 0.0000
vn -0.9050 0.3304 0.2680
vn -0.5346 0.3304 0.7779
vn -0.3035 0.1876 0.9342
vn -0.0247 0.3304 0.9435
vn 0.5746 0.3304 0.7488
vn 0.7947 0.1876 0.5773
vn 0.8897 0.3304 0.3151
vn 0.3066 0.1256 -0.9435
vn 0.3035 -0.1876 -0.9342
vn 0.0247 -0.3304 -0.9435
vn -0.8026 0.1256 -0.5831
vn -0.7947 -0.1876 -0.5773
vn -0.8897 -0.3304 -0.3151
vn -0.8026 0.1256 0.5831
vn -0.7947 -0.1876 0.5773
vn -0.5746 -0.3304 0.7488
vn 0.3066 0.1256 0.9435
vn 0.3035 -0.1876 0.9342
vn 0.5346 -0.3304 0.7779
vn 0.9921 0.1256 0.0000
vn 0.9822 -0.1876 0.0000
vn 0.9050 -0.3304 -0.2680
vn 0.4713 -0.6617 -0.5831
vn 0.1876 -0.7947 -0.5773
vn -0.0385 -0.6617 -0.7488
vn -0.4089 -0.6617 -0.6284
vn -0.4911 -0.7947 -0.3568
vn -0.7240 -0.6617 -0.1947
vn -0.7240 -0.6617 0.1947
vn -0.4911 -0.7947 0.3568
vn -0.4089 -0.6617 0.6284
vn 0.7002 -0.6617 -0.2680
vn 0.6071 -0.7947 0.0000
vn 0.3313 -0.9435 0.0000
vn -0.0385 -0.6617 0.7488
vn 0.1876 -0.7947 0.5773
vn 0.4713 -0.6617 0.5831
usemtl None
s off
f 1//1 14//1 13//1
f 2//2 14//2 16//2
f 1//3 13//3 18//3
f 1//4 18//4 20//4
f 1//5 20//5 17//5
f 2//6 16//6 23//6
f 3//7 15//7 25//7
f 4//8 19//8 27//8
f 5//9 21//9 29//9
f 6//10 22//10 31//10
f 2//11 23//11 26//11
f 3//12 25//12 28//12
f 4//13 27//13 30//13
f 5//14 29//14 32//14
f 6//15 31//15 24//15
f 7//16 33//16 38//16
f 8//17 34//17 40//17
f 9//18 35//18 41//18
f 10//19 36//19 42//19
f 11//20 37//20 39//20
f 39//21 42//21 12//21
f 39//22 37//22 42//22
f 37//23 10//23 42//23
f 42//24 41//24 12//24
f 42//25 36//25 41//25
f 36//26 9//26 41//26
f 41//27 40//27 12//27
f 41//28 35//28 40//28
f 35//29 8//29 40//29
f 40//30 38//30 12//30
f 40//31 34//31 38//31
f 34//32 7//32 38//32
f 38//33 39//33 12//33
f 38//34 33//34 39//34
f 33//35 11//35 39//35
f 24//36 37//36 11//36
f 24//37 31//37 37//37
f 31//38 10//38 37//38
f 32//39 36//39 10//39
f 32//40 29//40 36//40
f 29//41 9//41 36//41
f 30//42 35//42 9//42
f 30//43 27//43 35//43
f 27//44 8//44 35//44
f 28//45 34//45 8//45
f 28//46 25//46 34//46
f 25//47 7//47 34//47
f 26//48 33//48 7//48
f 26//49 23//49 33//49
f 23//50 11//50 33//50
f 31//51 32//51 10//51
f 31//52 22//52 32//52
f 22//53 5//53 32//53
f 29//54 30//54 9//54
f 29//55 21//55 30//55
f 21//56 4//56 30//56
f 27//57 28//57 8//57
f 27//58 19//58 28//58
f 19//59 3//59 28//59
f 25//60 26//60 7//60
f 25//61 15//61 26//61
f 15//62 2//62 26//62
f 23//63 24//63 11//63
f 23//64 16//64 24//64
f 16//65 6//65 24//65
f 17//66 22//66 6//66
f 17//67 20//67 22//67
f 20//68 5//68 22//68
f 20//69 21//69 5//69
f 20//70 18//70 21//70
f 18//71 4//71 21//71
f 18//72 19//72 4//72
f 18//73 13//73 19//73
f 13//74 3//74 19//74
f 16//75 17//75 6//75
f 16//76 14//76 17//76
f 14//77 1//77 17//77
f 13//78 15//78 3//78
f 13//79 14//79 15//79
f 14//80 2//80 15//80
o Cube.001_Cube.004
v 0.941647 0.011692 0.100000
v 0.941647 0.211692 0.100000
v 0.941647 0.011692 -0.100000
v 0.941647 0.211692 -0.100000
v 1.141647 0.011692 0.100000
v 1.141647 0.211692 0.100000
v 1.141647 0.011692 -0.100000
v 1.141647 0.211692 -0.100000
vn -1.0000 0.0000 0.0000
vn 0.0000 0.0000 -1.0000
vn 1.0000 0.0000 0.0000
vn 0.0000 0.0000 1.0000
vn 0.0000 -1.0000 0.0000
vn 0.0000 1.0000 0.0000
usemtl None
s off
f 43//81 44//81 46//81 45//81
f 45//82 46//82 50//82 49//82
f 49//83 50//83 48//83 47//83
f 47//84 48//84 44//84 43//84
f 45//85 49//85 47//85 43//85
f 50//86 46//86 44//86 48//86
o Cube_Cube.001
v -1.000000 0.200000 0.200000
v 1.000000 0.200000 0.200000
v -1.000000 0.200000 -0.200000
v 1.000000 0.200000 -0.200000
v -1.000000 -0.200000 0.200000
v 1.000000 -0.200000 0.200000
v -1.000000 -0.200000 -0.200000
v 1.000000 -0.200000 -0.200000
vn 0.0000 1.0000 0.0000
vn 0.0000 0.0000 -1.0000
vn -0.0000 -1.0000 0.0000
vn -0.0000 0.0000 1.0000
vn -1.0000 0.0000 0.0000
vn 1.0000 0.0000 0.0000
usemtl None
s off
f 51//87 52//87 54//87 53//87
f 53//88 54//88 58//88 57//88
f 57//89 58//89 56//89 55//89
f 55//90 56//90 52//90 51//90
f 53//91 57//91 55//91 51//91
f 58//92 54//92 52//92 56//92
o Cube.002_Cube.005
v 0.512029 -0.681652 -0.027294
v 0.512029 -0.081652 -0.027294
v 0.512029 -0.681652 -0.227294
v 0.512029 -0.081652 -0.227294
v 0.712029 -0.681652 -0.027294
v 0.712029 -0.081652 -0.027294
v 0.712029 -0.681652 -0.227294
v 0.712029 -0.081652 -0.227294
vn -1.0000 0.0000 0.0000
vn 0.0000 0.0000 -1.0000
vn 1.0000 0.0000 0.0000
vn 0.0000 0.0000 1.0000
vn 0.0000 -1.0000 0.0000
vn 0.0000 1.0000 0.0000
usemtl None
s off
f 59//93 60//93 62//93 61//93
f 61//94 62//94 66//94 65//94
f 65//95 66//95 64//95 63//95
f 63//96 64//96 60//96 59//96
f 61//97 65//97 63//97 59//97
f 66//98 62//98 60//98 64//98
o Cube.003_Cube.006
v 0.512029 -0.681652 0.200551
v 0.512029 -0.081652 0.200551
v 0.512029 -0.681652 0.000551
v 0.512029 -0.081652 0.000551
v 0.712029 -0.681652 0.200551
v 0.712029 -0.081652 0.200551
v 0.712029 -0.681652 0.000551
v 0.712029 -0.081652 0.000551
vn -1.0000 0.0000 0.0000
vn 0.0000 0.0000 -1.0000
vn 1.0000 0.0000 0.0000
vn 0.0000 0.0000 1.0000
vn 0.0000 -1.0000 0.0000
vn 0.0000 1.0000 0.0000
usemtl None
s off
f 67//99 68//99 70//99 69//99
f 69//100 70//100 74//100 73//100
f 73//101 74//101 72//101 71//101
f 71//102 72//102 68//102 67//102
f 69//103 73//103 71//103 67//103
f 74//104 70//104 68//104 72//104
o Cube.004_Cube.007
v -0.904730 -0.681652 -0.027294
v -0.904730 -0.081652 -0.027294
v -0.904730 -0.681652 -0.227294
v -0.904730 -0.081652 -0.227294
v -0.704730 -0.681652 -0.027294
v -0.704730 -0.081652 -0.027294
v -0.704730 -0.681652 -0.227294
v -0.704730 -0.081652 -0.227294
vn -1.0000 0.0000 0.0000
vn 0.0000 0.0000 -1.0000
vn 1.0000 0.0000 0.0000
vn 0.0000 0.0000 1.0000
vn 0.0000 -1.0000 0.0000
vn 0.0000 1.0000 0.0000
usemtl None
s off
f 75//105 76//105 78//105 77//105
f 77//106 78//106 82//106 81//106
f 81//107 82//107 80//107 79//107
f 79//108 80//108 76//108 75//108
f 77//109 81//109 79//109 75//109
f 82//110 78//110 76//110 80//110
o Cube.005_Cube.008
v -0.889059 -0.681652 0.207816
v -0.889059 -0.081652 0.207816
v -0.889059 -0.681652 0.007816
v -0.889059 -0.081652 0.007816
v -0.689059 -0.681652 0.207816
v -0.689059 -0.081652 0.207816
v -0.689059 -0.681652 0.007816
v -0.689059 -0.081652 0.007816
vn -1.0000 0.0000 0.0000
vn 0.0000 0.0000 -1.0000
vn 1.0000 0.0000 0.0000
vn 0.0000 0.0000 1.0000
vn 0.0000 -1.0000 0.0000
vn 0.0000 1.0000 0.0000
usemtl None
s off
f 83//111 84//111 86//111 85//111
f 85//112 86//112 90//112 89//112
f 89//113 90//113 88//113 87//113
f 87//114 88//114 84//114 83//114
f 85//115 89//115 87//115 83//115
f 90//116 86//116 84//116 88//116
